<svg width="500" height="455" viewBox="0 0 500 455" fill="none" xmlns="http://www.w3.org/2000/svg">
<path fill-rule="evenodd" clip-rule="evenodd" d="M244.048 1.49242C239.842 3.77842 237.892 9.12342 238.345 17.1274C238.694 23.3114 239.066 24.3494 241.97 27.2534C244.65 29.9344 245.971 30.4894 249.667 30.4894C253.339 30.4894 254.686 29.9314 257.282 27.3364C263.259 21.3584 263.218 8.12642 257.205 2.73942C253.717 -0.385583 248.427 -0.886583 244.048 1.49242ZM151.465 24.7144C150.254 24.9354 147.891 26.6784 146.215 28.5874C141.439 34.0264 141.977 37.0544 149.81 48.8364C157.303 60.1064 160.661 62.6824 166.447 61.5964C170.077 60.9154 175.167 56.1864 175.167 53.4944C175.167 52.7564 175.412 51.5144 175.711 50.7344C176.282 49.2474 163.855 29.6664 160.569 26.8734C158.384 25.0174 154.654 24.1334 151.465 24.7144ZM341.167 25.7004C336.133 28.2734 324.277 46.0794 324.213 51.1624C324.152 56.0114 328.017 60.6834 332.839 61.5874C339.065 62.7554 342.325 60.2674 350.151 48.3744C354.01 42.5094 357.167 36.8514 357.167 35.8004C357.167 34.7494 356.538 32.6734 355.769 31.1874C352.487 24.8404 346.932 22.7524 341.167 25.7004ZM222.418 61.5344C208.768 65.2104 199.928 73.3134 194.905 86.7564C192.894 92.1394 192.73 94.8384 192.215 130.962L191.667 169.436L187.667 170.128C181.264 171.237 174.587 174.567 170.479 178.701C166.821 182.383 162.261 189.597 163.211 190.2C163.462 190.359 202.714 190.372 250.437 190.228L337.207 189.967L335.668 186.992C331.553 179.034 323.837 173.296 313.317 170.371L307.167 168.661V133.962C307.167 114.835 306.715 96.8774 306.159 93.9494C303.05 77.5524 290.365 64.4454 274.368 61.0984C266.524 59.4574 228.961 59.7724 222.418 61.5344ZM80.0487 76.8714C76.8687 80.0524 76.1667 81.4584 76.1667 84.6494C76.1667 88.3024 77.9977 92.1954 80.7937 94.4894C87.3927 99.9024 105.354 113.088 107.867 114.364C109.628 115.258 112.154 115.989 113.482 115.989C116.527 115.989 120.736 112.723 122.775 108.779C126.042 102.463 122.803 97.4324 108.551 86.6894C105.187 84.1534 100.039 80.0334 97.1107 77.5344C92.7547 73.8164 91.0717 72.9894 87.8587 72.9894C84.6297 72.9894 83.2407 73.6804 80.0487 76.8714ZM406.122 74.7464C398.223 80.1564 378.852 96.6974 377.616 99.0874C374.714 104.699 376.77 111.698 382.134 114.472C388.211 117.614 391.611 116.123 408.167 103.05C420.966 92.9444 423.154 90.2554 423.162 84.6214C423.166 81.4584 422.46 80.0464 419.285 76.8714C414.873 72.4604 410.492 71.7524 406.122 74.7464ZM271.039 84.0944C274.668 85.3594 276.167 87.6024 276.167 91.7684C276.167 97.4814 274.909 97.7884 250.034 98.1554C228.919 98.4674 227.259 98.3614 225.284 96.5844C222.421 94.0074 222.487 88.9764 225.421 86.2214C227.969 83.8264 231.185 83.4814 253.768 83.1784C262.004 83.0684 269.187 83.4494 271.039 84.0944ZM274.257 120.85C277.013 124.256 276.714 128.414 273.532 130.916C271.054 132.865 269.631 132.989 249.667 132.989C229.703 132.989 228.28 132.865 225.802 130.916C221.704 127.693 222.649 120.978 227.482 118.968C228.684 118.468 239.27 118.156 251.007 118.274C272.108 118.487 272.369 118.515 274.257 120.85ZM458.167 144.028C416.841 152.579 416.699 152.619 413.107 156.71C410.199 160.023 409.982 160.75 410.403 165.819C410.77 170.243 411.391 171.785 413.561 173.651C415.046 174.929 417.386 176.257 418.76 176.602C420.134 176.947 434.175 175.851 449.963 174.166C465.75 172.481 481.705 170.817 485.417 170.466C489.129 170.116 492.163 169.528 492.158 169.159C492.148 168.451 486.247 149.11 484.097 142.739C483.401 140.677 482.569 139.029 482.249 139.078C481.929 139.126 471.092 141.354 458.167 144.028ZM13.8067 147.239C10.7127 155.992 6.90174 169.083 7.34574 169.433C7.52274 169.572 17.3417 170.679 29.1667 171.893C40.9917 173.107 57.1237 174.812 65.0147 175.683C78.2177 177.14 79.6347 177.136 82.7717 175.64C89.4897 172.437 91.9827 164.479 88.2067 158.288C85.4347 153.741 82.4217 152.514 66.6407 149.507C58.9547 148.042 44.8937 145.301 35.3937 143.416C25.8937 141.531 17.7267 139.989 17.2447 139.989C16.7637 139.989 15.2167 143.251 13.8067 147.239ZM273.778 155.331C277.026 158.124 277.433 162.933 274.679 165.976C272.957 167.878 271.635 167.989 250.594 167.989C238.349 167.989 227.602 167.709 226.712 167.368C224.046 166.345 222.033 161.473 223.107 158.646C225.12 153.351 226.832 152.989 249.834 152.989C270.646 152.989 271.108 153.034 273.778 155.331ZM0.835736 209.654C-0.974263 211.463 0.380736 252.193 2.75174 267.239L3.34274 270.989H51.7547H100.167V316.6V362.21L82.5957 380.259L65.0257 398.307L73.8457 407.216C85.1377 418.62 98.1057 429.193 112.919 439.074L124.667 446.91L124.922 358.949L125.178 270.989H143.033H160.888L161.48 275.988C162.812 287.228 170.584 297.599 181.433 302.609L187.667 305.489L212.417 305.816L237.167 306.143V318.319V330.496L225.917 335.415C169.211 360.21 167.621 361.119 162.986 371.371C161.064 375.623 160.672 378.182 160.67 386.489C160.667 395.957 160.514 396.688 157.8 400.237C147.832 413.266 151.435 430.014 165.626 436.622C181.233 443.89 197.328 434.328 198.913 416.849C199.357 411.953 199.027 410.223 196.762 405.595C195.291 402.587 192.53 398.759 190.627 397.088C187.4 394.255 187.167 393.644 187.167 388.033C187.167 382.201 187.267 381.972 190.417 380.601C193.07 379.446 231.519 363.134 235.917 361.297C236.897 360.888 237.167 366.108 237.167 385.499V410.223L233.365 413.913C226.554 420.523 224.298 433.54 228.541 441.746C232.654 449.699 240.729 454.433 250.167 454.422C257.408 454.414 262.72 452.223 267.364 447.331C275.781 438.462 275.099 422.479 265.926 413.632L262.667 410.489L263.167 385.818L263.667 361.148L271.667 364.559C276.067 366.435 287.092 371.036 296.167 374.783L312.667 381.595L312.968 387.937C313.265 394.171 313.207 394.332 309.589 397.314C299.021 406.025 298.389 423.29 308.295 432.688C321.212 444.944 343.372 438.364 347.022 421.188C348.692 413.327 345.124 401.518 339.725 397.037C338.503 396.023 338.165 393.557 338.157 385.617C338.146 373.876 335.906 367.489 330.06 362.528C326.085 359.155 312.673 352.72 283.917 340.39L263.167 331.493L263.169 318.491L263.171 305.489H287.419H311.667L317.784 302.662C328.218 297.84 336.469 287.034 338.023 276.155L338.69 271.489L356.423 271.216L374.156 270.943L374.412 358.926L374.667 446.91L386.415 439.074C401.275 429.162 414.201 418.615 425.616 407.087L434.565 398.05L416.866 380.107L399.167 362.164V316.576V270.989H447.556H495.944L496.526 267.739C498.214 258.296 499.252 240.63 498.977 225.989L498.667 209.489L250.086 209.237C113.366 209.098 1.20274 209.286 0.835736 209.654ZM450.712 236.444C453.735 239.466 453.981 244.762 451.255 248.128L449.344 250.489L251.186 250.746L53.0277 251.004L49.9737 247.95C47.3327 245.309 46.9997 244.396 47.5127 241.193C47.8387 239.156 49.0697 236.701 50.2467 235.739C52.2707 234.085 63.2957 233.989 250.323 233.989H448.258L450.712 236.444ZM310.167 272.954C310.167 275.388 304.834 281.593 301.068 283.54C296.902 285.695 202.432 285.695 198.266 283.54C194.5 281.593 189.167 275.388 189.167 272.954C189.167 271.022 190.191 270.989 249.667 270.989C309.143 270.989 310.167 271.022 310.167 272.954ZM27.9167 303.737C18.7037 303.902 11.1667 304.266 11.1667 304.546C11.1667 305.772 20.6577 329.948 22.8557 334.323C24.7197 338.031 25.6797 339.004 26.9757 338.501C27.9057 338.14 36.7667 335.593 46.6667 332.841C77.8097 324.186 77.8887 324.158 80.1007 321.345C82.6337 318.125 82.8547 311.416 80.5357 308.106C79.6387 306.825 77.4037 305.15 75.5677 304.383C72.1747 302.966 71.5037 302.957 27.9167 303.737ZM423.545 304.471C419.512 306.168 417.167 309.584 417.167 313.761C417.167 320.561 421.155 324.791 429.167 326.49C433.376 327.383 469.958 337.548 472.358 338.492C473.657 339.004 474.61 338.039 476.478 334.323C479.186 328.933 488.449 304.909 487.972 304.512C487.804 304.372 473.942 304.01 457.167 303.708C433.24 303.277 425.994 303.441 423.545 304.471Z" fill="black"/>
</svg>
